<svg xmlns="http://www.w3.org/2000/svg" xmlns:xlink="http://www.w3.org/1999/xlink" width="2000" zoomAndPan="magnify" viewBox="0 0 1500 1499.999933" height="2000" preserveAspectRatio="xMidYMid meet" version="1.0"><defs><g/><clipPath id="57a00baa53"><rect x="0" width="853" y="0" height="80"/></clipPath><clipPath id="62993f5319"><path d="M 258 725.046875 L 1242 725.046875 L 1242 798.546875 L 258 798.546875 Z M 258 725.046875 " clip-rule="nonzero"/></clipPath><clipPath id="67fa525b75"><path d="M 257 773.027344 L 1242 773.027344 L 1242 817.277344 L 257 817.277344 Z M 257 773.027344 " clip-rule="nonzero"/></clipPath><clipPath id="fed8cd2d59"><rect x="0" width="1193" y="0" height="137"/></clipPath></defs><g transform="matrix(1, 0, 0, 1, 336, 862)"><g clip-path="url(#57a00baa53)"><g fill="#0a131e" fill-opacity="1"><g transform="translate(1.03542, 57.282056)"><g><path d="M 3.515625 -2.359375 C 3.390625 -2.890625 3.328125 -3.921875 3.328125 -5.453125 C 3.328125 -6.992188 3.617188 -8.628906 4.203125 -10.359375 L 4.71875 -10.359375 C 4.675781 -9.929688 4.65625 -9.507812 4.65625 -9.09375 C 4.65625 -6.75 5.363281 -4.800781 6.78125 -3.25 C 8.207031 -1.695312 10.085938 -0.921875 12.421875 -0.921875 C 14.835938 -0.921875 16.820312 -1.648438 18.375 -3.109375 C 19.925781 -4.566406 20.703125 -6.394531 20.703125 -8.59375 C 20.703125 -10.800781 19.957031 -12.59375 18.46875 -13.96875 L 7.421875 -24.21875 C 5.347656 -26.132812 4.3125 -28.453125 4.3125 -31.171875 C 4.3125 -33.890625 5.222656 -36.21875 7.046875 -38.15625 C 8.867188 -40.09375 11.332031 -41.0625 14.4375 -41.0625 C 15.894531 -41.0625 17.539062 -40.867188 19.375 -40.484375 L 21.625 -40.484375 L 21.625 -33.421875 L 21.109375 -33.421875 C 21.109375 -35.222656 20.484375 -36.660156 19.234375 -37.734375 C 17.992188 -38.804688 16.394531 -39.34375 14.4375 -39.34375 C 12.476562 -39.34375 10.835938 -38.6875 9.515625 -37.375 C 8.191406 -36.070312 7.53125 -34.441406 7.53125 -32.484375 C 7.53125 -30.535156 8.296875 -28.851562 9.828125 -27.4375 L 21.171875 -16.96875 C 23.085938 -15.207031 24.046875 -12.789062 24.046875 -9.71875 C 24.046875 -6.65625 23.066406 -4.132812 21.109375 -2.15625 C 19.148438 -0.175781 16.539062 0.8125 13.28125 0.8125 C 11.59375 0.8125 9.800781 0.550781 7.90625 0.03125 C 6.007812 -0.488281 4.546875 -1.285156 3.515625 -2.359375 Z M 3.515625 -2.359375 "/></g></g></g><g fill="#0a131e" fill-opacity="1"><g transform="translate(51.368414, 57.282056)"><g><path d="M 9.75 -35.28125 C 13.5625 -39.132812 18.535156 -41.0625 24.671875 -41.0625 C 30.804688 -41.0625 35.789062 -39.132812 39.625 -35.28125 C 43.457031 -31.425781 45.375 -26.375 45.375 -20.125 C 45.375 -13.875 43.457031 -8.820312 39.625 -4.96875 C 35.789062 -1.113281 30.804688 0.8125 24.671875 0.8125 C 18.535156 0.8125 13.5625 -1.113281 9.75 -4.96875 C 5.9375 -8.820312 4.03125 -13.875 4.03125 -20.125 C 4.03125 -26.375 5.9375 -31.425781 9.75 -35.28125 Z M 12.90625 -6.203125 C 15.882812 -2.679688 19.816406 -0.921875 24.703125 -0.921875 C 29.585938 -0.921875 33.515625 -2.679688 36.484375 -6.203125 C 39.460938 -9.734375 40.953125 -14.375 40.953125 -20.125 C 40.953125 -23.925781 40.28125 -27.28125 38.9375 -30.1875 C 37.59375 -33.101562 35.679688 -35.359375 33.203125 -36.953125 C 30.734375 -38.546875 27.890625 -39.34375 24.671875 -39.34375 C 19.804688 -39.34375 15.882812 -37.578125 12.90625 -34.046875 C 9.9375 -30.515625 8.453125 -25.875 8.453125 -20.125 C 8.453125 -14.375 9.9375 -9.734375 12.90625 -6.203125 Z M 12.90625 -6.203125 "/></g></g></g><g fill="#0a131e" fill-opacity="1"><g transform="translate(122.580089, 57.282056)"><g><path d="M 27.140625 -39.625 L 27.140625 -34.796875 L 26.578125 -34.796875 L 26.578125 -35.65625 C 26.578125 -36.425781 26.304688 -37.085938 25.765625 -37.640625 C 25.234375 -38.203125 24.5625 -38.484375 23.75 -38.484375 L 11.625 -38.484375 L 11.625 -20.703125 L 21.34375 -20.703125 C 22.101562 -20.742188 22.75 -21.03125 23.28125 -21.5625 C 23.820312 -22.101562 24.09375 -22.757812 24.09375 -23.53125 L 24.09375 -24.390625 L 24.671875 -24.390625 L 24.671875 -15.296875 L 24.09375 -15.296875 L 24.09375 -16.15625 C 24.09375 -16.925781 23.832031 -17.578125 23.3125 -18.109375 C 22.800781 -18.648438 22.160156 -18.941406 21.390625 -18.984375 L 11.625 -18.984375 L 11.625 -4.203125 C 11.625 -3.203125 11.984375 -2.347656 12.703125 -1.640625 C 13.429688 -0.929688 14.296875 -0.578125 15.296875 -0.578125 L 16.046875 -0.578125 L 16.046875 0 L 3.453125 0 L 3.453125 -0.578125 L 4.203125 -0.578125 C 5.191406 -0.578125 6.039062 -0.929688 6.75 -1.640625 C 7.46875 -2.347656 7.84375 -3.203125 7.875 -4.203125 L 7.875 -36.40625 C 7.875 -37.320312 7.5 -38.097656 6.75 -38.734375 C 6.007812 -39.367188 5.160156 -39.6875 4.203125 -39.6875 L 3.515625 -39.6875 L 3.453125 -40.265625 L 20.296875 -40.265625 C 21.492188 -40.265625 22.789062 -40.378906 24.1875 -40.609375 C 25.582031 -40.835938 26.566406 -41.066406 27.140625 -41.296875 Z M 27.140625 -39.625 "/></g></g></g><g fill="#0a131e" fill-opacity="1"><g transform="translate(176.709185, 57.282056)"><g><path d="M 33.875 -35.140625 C 33.875 -36.054688 33.546875 -36.847656 32.890625 -37.515625 C 32.242188 -38.191406 31.476562 -38.550781 30.59375 -38.59375 L 19.671875 -38.59375 L 19.671875 -4.140625 C 19.710938 -3.140625 20.085938 -2.296875 20.796875 -1.609375 C 21.503906 -0.921875 22.351562 -0.578125 23.34375 -0.578125 L 24.09375 -0.578125 L 24.09375 0 L 11.5 0 L 11.5 -0.578125 L 12.25 -0.578125 C 13.25 -0.578125 14.101562 -0.921875 14.8125 -1.609375 C 15.519531 -2.296875 15.894531 -3.117188 15.9375 -4.078125 L 15.9375 -38.59375 L 5 -38.59375 C 4.082031 -38.550781 3.304688 -38.191406 2.671875 -37.515625 C 2.035156 -36.847656 1.71875 -36.054688 1.71875 -35.140625 L 1.71875 -34.171875 L 1.15625 -34.109375 L 1.15625 -41.359375 C 1.726562 -41.128906 2.722656 -40.894531 4.140625 -40.65625 C 5.554688 -40.425781 6.859375 -40.3125 8.046875 -40.3125 L 27.5 -40.3125 C 29.375 -40.3125 30.929688 -40.457031 32.171875 -40.75 C 33.421875 -41.039062 34.179688 -41.242188 34.453125 -41.359375 L 34.453125 -34.109375 L 33.875 -34.171875 Z M 33.875 -35.140625 "/></g></g></g><g fill="#0a131e" fill-opacity="1"><g transform="translate(235.267093, 57.282056)"><g><path d="M 57.125 -39.6875 L 56.65625 -39.6875 C 55.238281 -39.6875 53.992188 -39.171875 52.921875 -38.140625 C 52.304688 -37.597656 51.863281 -36.925781 51.59375 -36.125 L 42.046875 -5.6875 C 41.285156 -3.28125 40.863281 -1.15625 40.78125 0.6875 L 40.265625 0.6875 L 28.53125 -32.203125 L 19.796875 -5.6875 C 19.066406 -3.3125 18.660156 -1.1875 18.578125 0.6875 L 18.0625 0.6875 L 5.015625 -36.171875 C 4.546875 -37.328125 3.832031 -38.203125 2.875 -38.796875 C 1.914062 -39.390625 0.941406 -39.6875 -0.046875 -39.6875 L -0.515625 -39.6875 L -0.515625 -40.265625 L 12.25 -40.265625 L 12.25 -39.6875 L 11.734375 -39.6875 C 10.929688 -39.6875 10.328125 -39.425781 9.921875 -38.90625 C 9.523438 -38.394531 9.328125 -37.90625 9.328125 -37.4375 C 9.328125 -36.976562 9.382812 -36.554688 9.5 -36.171875 L 18.234375 -8.171875 L 28.9375 -41.1875 L 29.453125 -41.125 L 40.78125 -9.3125 L 48.484375 -36.234375 C 48.597656 -36.660156 48.65625 -37.09375 48.65625 -37.53125 C 48.65625 -37.96875 48.460938 -38.4375 48.078125 -38.9375 C 47.703125 -39.4375 47.113281 -39.6875 46.3125 -39.6875 L 45.78125 -39.6875 L 45.78125 -40.265625 L 57.125 -40.265625 Z M 57.125 -39.6875 "/></g></g></g><g fill="#0a131e" fill-opacity="1"><g transform="translate(314.761208, 57.282056)"><g><path d="M 41.1875 -0.578125 L 41.640625 -0.578125 L 41.640625 0 L 28.703125 0 L 28.703125 -0.578125 L 29.21875 -0.578125 C 30.03125 -0.578125 30.632812 -0.832031 31.03125 -1.34375 C 31.4375 -1.863281 31.640625 -2.351562 31.640625 -2.8125 C 31.640625 -3.28125 31.5625 -3.742188 31.40625 -4.203125 L 27.734375 -13.96875 L 12.203125 -13.96875 L 8.34375 -4.140625 C 8.1875 -3.679688 8.109375 -3.226562 8.109375 -2.78125 C 8.109375 -2.34375 8.3125 -1.863281 8.71875 -1.34375 C 9.125 -0.832031 9.726562 -0.578125 10.53125 -0.578125 L 11.046875 -0.578125 L 11.046875 0 L -0.515625 0 L -0.515625 -0.578125 L 0 -0.578125 C 0.957031 -0.578125 1.894531 -0.882812 2.8125 -1.5 C 3.738281 -2.113281 4.488281 -3.015625 5.0625 -4.203125 L 18.0625 -35.140625 C 19.476562 -38.242188 20.1875 -40.21875 20.1875 -41.0625 L 20.703125 -41.0625 L 36.125 -4.203125 C 36.664062 -3.015625 37.394531 -2.113281 38.3125 -1.5 C 39.226562 -0.882812 40.1875 -0.578125 41.1875 -0.578125 Z M 12.890625 -15.703125 L 27.03125 -15.703125 L 20.140625 -34.171875 Z M 12.890625 -15.703125 "/></g></g></g><g fill="#0a131e" fill-opacity="1"><g transform="translate(378.725716, 57.282056)"><g><path d="M 15.296875 -38.484375 L 11.625 -38.484375 L 11.625 -4.203125 C 11.625 -3.203125 11.976562 -2.347656 12.6875 -1.640625 C 13.394531 -0.929688 14.265625 -0.578125 15.296875 -0.578125 L 15.984375 -0.578125 L 16.046875 0 L 3.453125 0 L 3.453125 -0.578125 L 4.203125 -0.578125 C 5.191406 -0.578125 6.039062 -0.921875 6.75 -1.609375 C 7.46875 -2.296875 7.84375 -3.140625 7.875 -4.140625 L 7.875 -36.0625 C 7.84375 -37.0625 7.46875 -37.914062 6.75 -38.625 C 6.039062 -39.332031 5.191406 -39.6875 4.203125 -39.6875 L 3.453125 -39.6875 L 3.453125 -40.265625 L 18.984375 -40.265625 C 22.472656 -40.265625 25.210938 -39.296875 27.203125 -37.359375 C 29.203125 -35.421875 30.203125 -32.90625 30.203125 -29.8125 C 30.203125 -26.726562 29.25 -24.066406 27.34375 -21.828125 C 25.445312 -19.585938 23.140625 -18.46875 20.421875 -18.46875 C 20.992188 -18.195312 21.671875 -17.664062 22.453125 -16.875 C 23.242188 -16.09375 23.945312 -15.28125 24.5625 -14.4375 C 27.851562 -9.71875 30 -6.8125 31 -5.71875 C 32 -4.625 32.707031 -3.875 33.125 -3.46875 C 33.550781 -3.070312 34.007812 -2.679688 34.5 -2.296875 C 35 -1.910156 35.5 -1.601562 36 -1.375 C 37.113281 -0.84375 38.304688 -0.578125 39.578125 -0.578125 L 39.578125 0 L 36.40625 0 C 34.757812 0 33.222656 -0.296875 31.796875 -0.890625 C 30.378906 -1.484375 29.316406 -2.097656 28.609375 -2.734375 C 27.898438 -3.367188 27.285156 -3.984375 26.765625 -4.578125 C 26.253906 -5.171875 24.828125 -7.15625 22.484375 -10.53125 C 20.148438 -13.90625 18.789062 -15.832031 18.40625 -16.3125 C 18.019531 -16.789062 17.617188 -17.257812 17.203125 -17.71875 C 15.972656 -19.019531 14.742188 -19.671875 13.515625 -19.671875 L 13.515625 -20.25 C 13.816406 -20.207031 14.21875 -20.1875 14.71875 -20.1875 C 15.21875 -20.1875 15.832031 -20.207031 16.5625 -20.25 C 21.320312 -20.363281 24.3125 -22.359375 25.53125 -26.234375 C 25.757812 -26.992188 25.875 -27.707031 25.875 -28.375 C 25.875 -29.050781 25.875 -29.484375 25.875 -29.671875 C 25.800781 -32.242188 25.128906 -34.316406 23.859375 -35.890625 C 22.597656 -37.460938 20.894531 -38.304688 18.75 -38.421875 C 17.832031 -38.460938 16.679688 -38.484375 15.296875 -38.484375 Z M 15.296875 -38.484375 "/></g></g></g><g fill="#0a131e" fill-opacity="1"><g transform="translate(440.677119, 57.282056)"><g><path d="M 4.203125 -0.578125 C 5.191406 -0.578125 6.039062 -0.929688 6.75 -1.640625 C 7.46875 -2.347656 7.84375 -3.203125 7.875 -4.203125 L 7.875 -36.40625 C 7.757812 -37.320312 7.359375 -38.097656 6.671875 -38.734375 C 5.984375 -39.367188 5.160156 -39.6875 4.203125 -39.6875 L 3.515625 -39.6875 L 3.453125 -40.265625 L 20.296875 -40.265625 C 21.492188 -40.265625 22.789062 -40.378906 24.1875 -40.609375 C 25.582031 -40.835938 26.566406 -41.066406 27.140625 -41.296875 L 27.140625 -34.046875 L 26.578125 -34.046875 L 26.578125 -35.078125 C 26.578125 -36.003906 26.257812 -36.789062 25.625 -37.4375 C 24.988281 -38.09375 24.226562 -38.441406 23.34375 -38.484375 L 11.625 -38.484375 L 11.625 -20.703125 L 21.34375 -20.703125 C 22.101562 -20.742188 22.75 -21.03125 23.28125 -21.5625 C 23.820312 -22.101562 24.09375 -22.773438 24.09375 -23.578125 L 24.09375 -24.390625 L 24.671875 -24.390625 L 24.671875 -15.296875 L 24.09375 -15.296875 L 24.09375 -16.15625 C 24.09375 -16.925781 23.832031 -17.578125 23.3125 -18.109375 C 22.800781 -18.648438 22.160156 -18.941406 21.390625 -18.984375 L 11.625 -18.984375 L 11.625 -1.78125 L 19.84375 -1.78125 C 22.675781 -1.78125 24.835938 -2.410156 26.328125 -3.671875 C 27.828125 -4.941406 29.078125 -6.820312 30.078125 -9.3125 L 30.65625 -9.3125 L 27.3125 0 L 3.453125 0 L 3.453125 -0.578125 Z M 4.203125 -0.578125 "/></g></g></g><g fill="#0a131e" fill-opacity="1"><g transform="translate(496.876844, 57.282056)"><g/></g></g><g fill="#0a131e" fill-opacity="1"><g transform="translate(534.268477, 57.282056)"><g><path d="M 31.46875 -0.578125 C 32.457031 -0.578125 33.304688 -0.921875 34.015625 -1.609375 C 34.722656 -2.296875 35.097656 -3.140625 35.140625 -4.140625 L 35.140625 -19.03125 L 11.625 -19.03125 L 11.625 -4.203125 C 11.625 -3.203125 11.984375 -2.347656 12.703125 -1.640625 C 13.429688 -0.929688 14.296875 -0.578125 15.296875 -0.578125 L 16.046875 -0.578125 L 16.046875 0 L 3.453125 0 L 3.453125 -0.578125 L 4.203125 -0.578125 C 5.191406 -0.578125 6.039062 -0.929688 6.75 -1.640625 C 7.46875 -2.347656 7.84375 -3.203125 7.875 -4.203125 L 7.875 -36.125 C 7.84375 -37.113281 7.46875 -37.953125 6.75 -38.640625 C 6.039062 -39.335938 5.191406 -39.6875 4.203125 -39.6875 L 3.453125 -39.6875 L 3.453125 -40.265625 L 16.046875 -40.265625 L 16.046875 -39.6875 L 15.296875 -39.6875 C 14.296875 -39.6875 13.441406 -39.335938 12.734375 -38.640625 C 12.023438 -37.953125 11.65625 -37.113281 11.625 -36.125 L 11.625 -20.765625 L 35.140625 -20.765625 L 35.140625 -36.125 C 35.097656 -37.5 34.484375 -38.53125 33.296875 -39.21875 C 32.722656 -39.53125 32.113281 -39.6875 31.46875 -39.6875 L 30.71875 -39.6875 L 30.71875 -40.265625 L 43.3125 -40.265625 L 43.3125 -39.6875 L 42.5625 -39.6875 C 41.5625 -39.6875 40.707031 -39.332031 40 -38.625 C 39.289062 -37.914062 38.914062 -37.0625 38.875 -36.0625 L 38.875 -4.203125 C 38.914062 -3.203125 39.289062 -2.347656 40 -1.640625 C 40.707031 -0.929688 41.5625 -0.578125 42.5625 -0.578125 L 43.3125 -0.578125 L 43.3125 0 L 30.71875 0 L 30.71875 -0.578125 Z M 31.46875 -0.578125 "/></g></g></g><g fill="#0a131e" fill-opacity="1"><g transform="translate(604.04219, 57.282056)"><g><path d="M 9.75 -35.28125 C 13.5625 -39.132812 18.535156 -41.0625 24.671875 -41.0625 C 30.804688 -41.0625 35.789062 -39.132812 39.625 -35.28125 C 43.457031 -31.425781 45.375 -26.375 45.375 -20.125 C 45.375 -13.875 43.457031 -8.820312 39.625 -4.96875 C 35.789062 -1.113281 30.804688 0.8125 24.671875 0.8125 C 18.535156 0.8125 13.5625 -1.113281 9.75 -4.96875 C 5.9375 -8.820312 4.03125 -13.875 4.03125 -20.125 C 4.03125 -26.375 5.9375 -31.425781 9.75 -35.28125 Z M 12.90625 -6.203125 C 15.882812 -2.679688 19.816406 -0.921875 24.703125 -0.921875 C 29.585938 -0.921875 33.515625 -2.679688 36.484375 -6.203125 C 39.460938 -9.734375 40.953125 -14.375 40.953125 -20.125 C 40.953125 -23.925781 40.28125 -27.28125 38.9375 -30.1875 C 37.59375 -33.101562 35.679688 -35.359375 33.203125 -36.953125 C 30.734375 -38.546875 27.890625 -39.34375 24.671875 -39.34375 C 19.804688 -39.34375 15.882812 -37.578125 12.90625 -34.046875 C 9.9375 -30.515625 8.453125 -25.875 8.453125 -20.125 C 8.453125 -14.375 9.9375 -9.734375 12.90625 -6.203125 Z M 12.90625 -6.203125 "/></g></g></g><g fill="#0a131e" fill-opacity="1"><g transform="translate(675.253866, 57.282056)"><g><path d="M 42.28125 -39.6875 L 41.359375 -39.6875 C 40.546875 -39.6875 39.84375 -39.425781 39.25 -38.90625 C 38.65625 -38.394531 38.34375 -37.753906 38.3125 -36.984375 L 38.3125 -14.203125 C 38.3125 -9.722656 36.890625 -6.097656 34.046875 -3.328125 C 31.210938 -0.566406 27.4375 0.8125 22.71875 0.8125 C 18 0.8125 14.171875 -0.554688 11.234375 -3.296875 C 8.304688 -6.046875 6.84375 -9.664062 6.84375 -14.15625 L 6.84375 -36.8125 C 6.84375 -37.957031 6.34375 -38.800781 5.34375 -39.34375 C 4.882812 -39.570312 4.367188 -39.6875 3.796875 -39.6875 L 2.875 -39.6875 L 2.875 -40.265625 L 14.546875 -40.265625 L 14.546875 -39.6875 L 13.625 -39.6875 C 12.78125 -39.6875 12.070312 -39.425781 11.5 -38.90625 C 10.925781 -38.394531 10.617188 -37.734375 10.578125 -36.921875 L 10.578125 -14.953125 C 10.578125 -10.773438 11.695312 -7.398438 13.9375 -4.828125 C 16.1875 -2.265625 19.1875 -0.984375 22.9375 -0.984375 C 26.695312 -0.984375 29.75 -2.195312 32.09375 -4.625 C 34.4375 -7.0625 35.609375 -10.253906 35.609375 -14.203125 L 35.609375 -36.921875 C 35.566406 -37.734375 35.253906 -38.394531 34.671875 -38.90625 C 34.097656 -39.425781 33.390625 -39.6875 32.546875 -39.6875 L 31.640625 -39.6875 L 31.640625 -40.265625 L 42.28125 -40.265625 Z M 42.28125 -39.6875 "/></g></g></g><g fill="#0a131e" fill-opacity="1"><g transform="translate(743.417121, 57.282056)"><g><path d="M 3.515625 -2.359375 C 3.390625 -2.890625 3.328125 -3.921875 3.328125 -5.453125 C 3.328125 -6.992188 3.617188 -8.628906 4.203125 -10.359375 L 4.71875 -10.359375 C 4.675781 -9.929688 4.65625 -9.507812 4.65625 -9.09375 C 4.65625 -6.75 5.363281 -4.800781 6.78125 -3.25 C 8.207031 -1.695312 10.085938 -0.921875 12.421875 -0.921875 C 14.835938 -0.921875 16.820312 -1.648438 18.375 -3.109375 C 19.925781 -4.566406 20.703125 -6.394531 20.703125 -8.59375 C 20.703125 -10.800781 19.957031 -12.59375 18.46875 -13.96875 L 7.421875 -24.21875 C 5.347656 -26.132812 4.3125 -28.453125 4.3125 -31.171875 C 4.3125 -33.890625 5.222656 -36.21875 7.046875 -38.15625 C 8.867188 -40.09375 11.332031 -41.0625 14.4375 -41.0625 C 15.894531 -41.0625 17.539062 -40.867188 19.375 -40.484375 L 21.625 -40.484375 L 21.625 -33.421875 L 21.109375 -33.421875 C 21.109375 -35.222656 20.484375 -36.660156 19.234375 -37.734375 C 17.992188 -38.804688 16.394531 -39.34375 14.4375 -39.34375 C 12.476562 -39.34375 10.835938 -38.6875 9.515625 -37.375 C 8.191406 -36.070312 7.53125 -34.441406 7.53125 -32.484375 C 7.53125 -30.535156 8.296875 -28.851562 9.828125 -27.4375 L 21.171875 -16.96875 C 23.085938 -15.207031 24.046875 -12.789062 24.046875 -9.71875 C 24.046875 -6.65625 23.066406 -4.132812 21.109375 -2.15625 C 19.148438 -0.175781 16.539062 0.8125 13.28125 0.8125 C 11.59375 0.8125 9.800781 0.550781 7.90625 0.03125 C 6.007812 -0.488281 4.546875 -1.285156 3.515625 -2.359375 Z M 3.515625 -2.359375 "/></g></g></g><g fill="#0a131e" fill-opacity="1"><g transform="translate(793.750074, 57.282056)"><g><path d="M 4.203125 -0.578125 C 5.191406 -0.578125 6.039062 -0.929688 6.75 -1.640625 C 7.46875 -2.347656 7.84375 -3.203125 7.875 -4.203125 L 7.875 -36.40625 C 7.757812 -37.320312 7.359375 -38.097656 6.671875 -38.734375 C 5.984375 -39.367188 5.160156 -39.6875 4.203125 -39.6875 L 3.515625 -39.6875 L 3.453125 -40.265625 L 20.296875 -40.265625 C 21.492188 -40.265625 22.789062 -40.378906 24.1875 -40.609375 C 25.582031 -40.835938 26.566406 -41.066406 27.140625 -41.296875 L 27.140625 -34.046875 L 26.578125 -34.046875 L 26.578125 -35.078125 C 26.578125 -36.003906 26.257812 -36.789062 25.625 -37.4375 C 24.988281 -38.09375 24.226562 -38.441406 23.34375 -38.484375 L 11.625 -38.484375 L 11.625 -20.703125 L 21.34375 -20.703125 C 22.101562 -20.742188 22.75 -21.03125 23.28125 -21.5625 C 23.820312 -22.101562 24.09375 -22.773438 24.09375 -23.578125 L 24.09375 -24.390625 L 24.671875 -24.390625 L 24.671875 -15.296875 L 24.09375 -15.296875 L 24.09375 -16.15625 C 24.09375 -16.925781 23.832031 -17.578125 23.3125 -18.109375 C 22.800781 -18.648438 22.160156 -18.941406 21.390625 -18.984375 L 11.625 -18.984375 L 11.625 -1.78125 L 19.84375 -1.78125 C 22.675781 -1.78125 24.835938 -2.410156 26.328125 -3.671875 C 27.828125 -4.941406 29.078125 -6.820312 30.078125 -9.3125 L 30.65625 -9.3125 L 27.3125 0 L 3.453125 0 L 3.453125 -0.578125 Z M 4.203125 -0.578125 "/></g></g></g></g></g><g clip-path="url(#62993f5319)"><path fill="#f4bc2b" d="M 258.039062 772.949219 L 1241.953125 772.949219 L 1241.953125 798.816406 L 258.039062 798.816406 Z M 258.039062 725.046875 L 1241.953125 725.046875 L 1241.953125 750.914062 L 258.039062 750.914062 Z M 258.039062 725.046875 " fill-opacity="1" fill-rule="nonzero"/></g><g clip-path="url(#67fa525b75)"><path fill="#00a446" d="M 257.785156 820.929688 L 1241.699219 820.929688 L 1241.699219 846.796875 L 257.785156 846.796875 Z M 257.785156 773.027344 L 1241.699219 773.027344 L 1241.699219 798.894531 L 257.785156 798.894531 Z M 257.785156 773.027344 " fill-opacity="1" fill-rule="nonzero"/></g><g transform="matrix(1, 0, 0, 1, 154, 567)"><g clip-path="url(#fed8cd2d59)"><g fill="#0a131e" fill-opacity="1"><g transform="translate(1.894769, 99.957333)"><g><path d="M 148.890625 -89.8125 C 147.847656 -89.414062 147.144531 -88.796875 146.78125 -87.953125 C 146.425781 -87.117188 146.210938 -86.21875 146.140625 -85.25 C 146.140625 -84.695312 146.140625 -82.914062 146.140625 -79.90625 C 146.140625 -76.90625 146.140625 -73.144531 146.140625 -68.625 C 146.140625 -64.101562 146.140625 -59.179688 146.140625 -53.859375 C 146.140625 -48.535156 146.140625 -43.226562 146.140625 -37.9375 C 146.140625 -32.65625 146.117188 -27.753906 146.078125 -23.234375 C 146.035156 -18.710938 146.035156 -14.96875 146.078125 -12 C 146.117188 -9.039062 146.140625 -7.28125 146.140625 -6.71875 C 146.140625 -5.363281 146.273438 -4.242188 146.546875 -3.359375 C 146.828125 -2.484375 147.691406 -1.882812 149.140625 -1.5625 C 149.773438 -1.40625 150.050781 -1.101562 149.96875 -0.65625 C 149.894531 -0.21875 149.65625 0 149.25 0 L 127.640625 0 C 127.078125 0 126.816406 -0.238281 126.859375 -0.71875 C 126.898438 -1.195312 127.28125 -1.519531 128 -1.6875 C 128.164062 -1.6875 128.328125 -1.722656 128.484375 -1.796875 C 129.203125 -2.035156 129.703125 -2.535156 129.984375 -3.296875 C 130.265625 -4.054688 130.164062 -4.757812 129.6875 -5.40625 C 127.363281 -8.6875 124 -12.507812 119.59375 -16.875 C 115.195312 -21.238281 110.09375 -25.820312 104.28125 -30.625 C 98.476562 -35.425781 92.316406 -40.128906 85.796875 -44.734375 C 79.273438 -49.335938 72.691406 -53.5 66.046875 -57.21875 C 59.398438 -60.9375 53.035156 -63.9375 46.953125 -66.21875 C 40.867188 -68.5 35.382812 -69.640625 30.5 -69.640625 C 28.09375 -70.117188 26.851562 -69.117188 26.78125 -66.640625 C 26.78125 -65.921875 26.78125 -64.078125 26.78125 -61.109375 C 26.78125 -58.148438 26.738281 -54.53125 26.65625 -50.25 C 26.570312 -45.96875 26.507812 -41.484375 26.46875 -36.796875 C 26.4375 -32.117188 26.398438 -27.65625 26.359375 -23.40625 C 26.316406 -19.164062 26.296875 -15.582031 26.296875 -12.65625 C 26.296875 -9.738281 26.296875 -8 26.296875 -7.4375 C 26.378906 -6.238281 26.757812 -5.039062 27.4375 -3.84375 C 28.113281 -2.644531 28.894531 -1.882812 29.78125 -1.5625 C 30.175781 -1.40625 30.414062 -1.101562 30.5 -0.65625 C 30.582031 -0.21875 30.265625 0 29.546875 0 C 28.421875 0 26.816406 0 24.734375 0 C 22.648438 0 20.46875 0 18.1875 0 C 15.90625 0 13.863281 0 12.0625 0 C 10.257812 0 9.082031 0 8.53125 0 C 8.125 0 7.800781 -0.238281 7.5625 -0.71875 C 7.476562 -1.039062 7.578125 -1.28125 7.859375 -1.4375 C 8.140625 -1.601562 8.398438 -1.765625 8.640625 -1.921875 C 10.242188 -2.640625 11.203125 -3.617188 11.515625 -4.859375 C 11.835938 -6.097656 12 -7.519531 12 -9.125 C 12 -9.601562 12.019531 -11.300781 12.0625 -14.21875 C 12.101562 -17.144531 12.125 -20.847656 12.125 -25.328125 C 12.125 -29.816406 12.125 -34.660156 12.125 -39.859375 C 12.125 -45.066406 12.101562 -50.289062 12.0625 -55.53125 C 12.019531 -60.78125 12 -65.644531 12 -70.125 C 12 -74.601562 11.976562 -78.285156 11.9375 -81.171875 C 11.90625 -84.054688 11.847656 -85.78125 11.765625 -86.34375 C 11.523438 -88.019531 10.566406 -89.296875 8.890625 -90.171875 C 8.242188 -90.492188 8 -90.832031 8.15625 -91.1875 C 8.320312 -91.550781 8.566406 -91.734375 8.890625 -91.734375 L 30.265625 -91.734375 C 30.742188 -91.734375 31 -91.550781 31.03125 -91.1875 C 31.070312 -90.832031 30.816406 -90.578125 30.265625 -90.421875 C 29.785156 -90.253906 29.242188 -90.007812 28.640625 -89.6875 C 28.035156 -89.375 27.734375 -88.9375 27.734375 -88.375 C 27.734375 -87.976562 27.992188 -87.695312 28.515625 -87.53125 C 29.035156 -87.375 29.617188 -87.253906 30.265625 -87.171875 C 37.390625 -86.210938 44.734375 -84.210938 52.296875 -81.171875 C 59.859375 -78.128906 67.320312 -74.484375 74.6875 -70.234375 C 82.050781 -65.992188 89.054688 -61.515625 95.703125 -56.796875 C 102.347656 -52.078125 108.367188 -47.515625 113.765625 -43.109375 C 119.171875 -38.703125 123.632812 -34.941406 127.15625 -31.828125 C 127.957031 -31.097656 128.816406 -30.953125 129.734375 -31.390625 C 130.660156 -31.835938 131.125 -32.539062 131.125 -33.5 L 130.53125 -84.421875 C 130.53125 -85.941406 130.507812 -87.140625 130.46875 -88.015625 C 130.425781 -88.898438 129.566406 -89.582031 127.890625 -90.0625 C 127.242188 -90.21875 126.957031 -90.535156 127.03125 -91.015625 C 127.113281 -91.492188 127.398438 -91.734375 127.890625 -91.734375 L 149.625 -91.734375 C 150.101562 -91.734375 150.34375 -91.492188 150.34375 -91.015625 C 150.34375 -90.535156 149.859375 -90.132812 148.890625 -89.8125 Z M 148.890625 -89.8125 "/></g></g></g><g fill="#0a131e" fill-opacity="1"><g transform="translate(159.908269, 99.957333)"><g><path d="M 171.46875 -1.6875 C 171.945312 -1.445312 172.207031 -1.066406 172.25 -0.546875 C 172.289062 -0.0234375 171.910156 0.234375 171.109375 0.234375 C 170.472656 0.234375 169.09375 0.234375 166.96875 0.234375 C 164.84375 0.234375 162.378906 0.234375 159.578125 0.234375 C 156.773438 0.234375 154.015625 0.234375 151.296875 0.234375 C 148.578125 0.234375 146.234375 0.234375 144.265625 0.234375 C 142.304688 0.234375 141.128906 0.234375 140.734375 0.234375 C 140.253906 0.234375 139.910156 -0.0234375 139.703125 -0.546875 C 139.503906 -1.066406 139.847656 -1.523438 140.734375 -1.921875 C 140.972656 -2.003906 141.234375 -2.082031 141.515625 -2.15625 C 141.796875 -2.238281 142.054688 -2.359375 142.296875 -2.515625 C 143.816406 -3.160156 144.175781 -4.320312 143.375 -6 C 143.132812 -6.5625 142.65625 -7.398438 141.9375 -8.515625 C 141.21875 -9.640625 139.753906 -11.125 137.546875 -12.96875 C 135.347656 -14.8125 131.882812 -17.050781 127.15625 -19.6875 C 120.03125 -23.375 113.066406 -26.296875 106.265625 -28.453125 C 99.460938 -30.617188 93.039062 -32.257812 87 -33.375 C 80.957031 -34.5 75.53125 -35.238281 70.71875 -35.59375 C 65.914062 -35.957031 61.992188 -36.179688 58.953125 -36.265625 C 57.515625 -36.265625 55.8125 -35.601562 53.84375 -34.28125 C 51.882812 -32.957031 49.84375 -31.210938 47.71875 -29.046875 C 45.601562 -26.890625 43.523438 -24.585938 41.484375 -22.140625 C 39.441406 -19.703125 37.578125 -17.363281 35.890625 -15.125 C 34.210938 -12.882812 32.832031 -10.984375 31.75 -9.421875 C 30.675781 -7.859375 30.0625 -6.957031 29.90625 -6.71875 C 28.78125 -5.195312 28.9375 -3.957031 30.375 -3 C 30.851562 -2.757812 31.332031 -2.539062 31.8125 -2.34375 C 32.300781 -2.144531 32.785156 -1.960938 33.265625 -1.796875 C 34.066406 -1.554688 34.445312 -1.15625 34.40625 -0.59375 C 34.363281 -0.0390625 33.941406 0.234375 33.140625 0.234375 C 32.742188 0.234375 31.441406 0.234375 29.234375 0.234375 C 27.035156 0.234375 24.4375 0.234375 21.4375 0.234375 C 18.4375 0.234375 15.453125 0.234375 12.484375 0.234375 C 9.523438 0.234375 7.003906 0.234375 4.921875 0.234375 C 2.835938 0.234375 1.71875 0.234375 1.5625 0.234375 C 1.082031 0.234375 0.800781 -0.125 0.71875 -0.84375 C 0.632812 -1.5625 1.234375 -2.039062 2.515625 -2.28125 C 4.523438 -2.757812 6.367188 -3.4375 8.046875 -4.3125 C 9.722656 -5.195312 11.203125 -6.363281 12.484375 -7.8125 C 12.804688 -8.207031 13.925781 -9.601562 15.84375 -12 C 17.769531 -14.40625 20.234375 -17.507812 23.234375 -21.3125 C 26.234375 -25.113281 29.554688 -29.335938 33.203125 -33.984375 C 36.847656 -38.628906 40.585938 -43.390625 44.421875 -48.265625 C 48.265625 -53.148438 51.988281 -57.875 55.59375 -62.4375 C 59.195312 -67 62.421875 -71.117188 65.265625 -74.796875 C 68.109375 -78.484375 70.390625 -81.445312 72.109375 -83.6875 C 73.828125 -85.9375 74.726562 -87.140625 74.8125 -87.296875 C 75.125 -88.097656 75.0625 -88.675781 74.625 -89.03125 C 74.1875 -89.394531 73.6875 -89.65625 73.125 -89.8125 C 72.40625 -90.050781 72.101562 -90.429688 72.21875 -90.953125 C 72.34375 -91.472656 72.601562 -91.734375 73 -91.734375 C 73.40625 -91.734375 74.507812 -91.734375 76.3125 -91.734375 C 78.113281 -91.734375 80.253906 -91.734375 82.734375 -91.734375 C 85.210938 -91.734375 87.734375 -91.734375 90.296875 -91.734375 C 92.859375 -91.734375 95.078125 -91.734375 96.953125 -91.734375 C 98.835938 -91.734375 100.019531 -91.734375 100.5 -91.734375 C 101.144531 -91.734375 101.46875 -91.453125 101.46875 -90.890625 C 101.46875 -90.335938 101.109375 -90.019531 100.390625 -89.9375 C 98.867188 -89.695312 98.304688 -88.859375 98.703125 -87.421875 C 99.097656 -86.535156 100.273438 -84.691406 102.234375 -81.890625 C 104.203125 -79.085938 106.765625 -75.664062 109.921875 -71.625 C 113.085938 -67.582031 116.59375 -63.160156 120.4375 -58.359375 C 124.28125 -53.554688 128.28125 -48.648438 132.4375 -43.640625 C 136.601562 -38.640625 140.726562 -33.757812 144.8125 -29 C 148.894531 -24.238281 152.71875 -19.914062 156.28125 -16.03125 C 159.84375 -12.144531 162.941406 -8.921875 165.578125 -6.359375 C 168.222656 -3.796875 170.1875 -2.238281 171.46875 -1.6875 Z M 113 -42.140625 C 113.394531 -42.140625 113.628906 -42.378906 113.703125 -42.859375 C 113.785156 -43.347656 113.628906 -43.75 113.234375 -44.0625 C 112.992188 -44.550781 112.734375 -44.972656 112.453125 -45.328125 C 112.171875 -45.691406 111.867188 -46.03125 111.546875 -46.34375 C 110.828125 -47.070312 110.144531 -47.816406 109.5 -48.578125 C 108.863281 -49.335938 108.265625 -50.078125 107.703125 -50.796875 C 106.421875 -52.472656 105.117188 -54.113281 103.796875 -55.71875 C 102.484375 -57.320312 101.144531 -58.882812 99.78125 -60.40625 C 98.738281 -61.6875 97.675781 -63.003906 96.59375 -64.359375 C 95.519531 -65.722656 94.421875 -67.003906 93.296875 -68.203125 C 92.421875 -69.160156 91.601562 -70.140625 90.84375 -71.140625 C 90.082031 -72.140625 89.300781 -73.160156 88.5 -74.203125 C 87.300781 -75.566406 86.140625 -75.53125 85.015625 -74.09375 C 83.816406 -72.644531 82.613281 -71.160156 81.40625 -69.640625 C 80.207031 -68.117188 78.96875 -66.640625 77.6875 -65.203125 C 76.332031 -63.597656 75.015625 -61.972656 73.734375 -60.328125 C 72.453125 -58.691406 71.085938 -57.15625 69.640625 -55.71875 C 69.398438 -55.394531 69.160156 -55.050781 68.921875 -54.6875 C 68.679688 -54.332031 68.519531 -53.957031 68.4375 -53.5625 C 68.6875 -52.195312 69.25 -51.429688 70.125 -51.265625 C 70.769531 -51.265625 72.191406 -51.023438 74.390625 -50.546875 C 76.585938 -50.066406 79.25 -49.46875 82.375 -48.75 C 85.5 -48.03125 88.738281 -47.289062 92.09375 -46.53125 C 95.457031 -45.769531 98.660156 -45.046875 101.703125 -44.359375 C 104.742188 -43.679688 107.285156 -43.140625 109.328125 -42.734375 C 111.367188 -42.335938 112.59375 -42.140625 113 -42.140625 Z M 113 -42.140625 "/></g></g></g><g fill="#0a131e" fill-opacity="1"><g transform="translate(333.050714, 99.957333)"><g><path d="M 95.828125 -84.65625 C 85.898438 -84.65625 76.53125 -83.773438 67.71875 -82.015625 C 58.914062 -80.253906 51.128906 -77.8125 44.359375 -74.6875 C 37.597656 -71.5625 32.296875 -67.9375 28.453125 -63.8125 C 24.609375 -59.695312 22.6875 -55.273438 22.6875 -50.546875 C 22.6875 -50.304688 22.6875 -49.847656 22.6875 -49.171875 C 22.6875 -48.492188 22.6875 -48.035156 22.6875 -47.796875 C 22.6875 -43.066406 24.609375 -38.640625 28.453125 -34.515625 C 32.296875 -30.398438 37.597656 -26.78125 44.359375 -23.65625 C 51.128906 -20.53125 58.914062 -18.066406 67.71875 -16.265625 C 76.53125 -14.460938 85.898438 -13.5625 95.828125 -13.5625 C 106.148438 -13.5625 115.8125 -14.601562 124.8125 -16.6875 C 133.820312 -18.769531 141.648438 -21.332031 148.296875 -24.375 C 149.015625 -24.695312 149.515625 -25.097656 149.796875 -25.578125 C 150.078125 -26.054688 150.257812 -26.457031 150.34375 -26.78125 C 150.5 -27.34375 150.773438 -27.582031 151.171875 -27.5 C 151.578125 -27.414062 151.738281 -27.09375 151.65625 -26.53125 L 151.65625 -6.96875 C 151.65625 -6.488281 151.515625 -6.25 151.234375 -6.25 C 150.953125 -6.25 150.773438 -6.367188 150.703125 -6.609375 C 150.460938 -7.003906 150.0625 -7.421875 149.5 -7.859375 C 148.9375 -8.304688 148.054688 -8.328125 146.859375 -7.921875 C 139.328125 -5.203125 131.4375 -3.101562 123.1875 -1.625 C 114.945312 -0.144531 105.828125 0.59375 95.828125 0.59375 C 85.898438 0.59375 76.429688 -0.222656 67.421875 -1.859375 C 58.421875 -3.503906 50.175781 -5.804688 42.6875 -8.765625 C 35.195312 -11.722656 28.691406 -15.203125 23.171875 -19.203125 C 17.648438 -23.210938 13.367188 -27.640625 10.328125 -32.484375 C 7.285156 -37.328125 5.765625 -42.429688 5.765625 -47.796875 C 5.765625 -48.035156 5.765625 -48.492188 5.765625 -49.171875 C 5.765625 -49.847656 5.765625 -50.304688 5.765625 -50.546875 C 5.765625 -55.910156 7.285156 -60.992188 10.328125 -65.796875 C 13.367188 -70.597656 17.648438 -75.019531 23.171875 -79.0625 C 28.691406 -83.113281 35.195312 -86.617188 42.6875 -89.578125 C 50.175781 -92.535156 58.421875 -94.832031 67.421875 -96.46875 C 76.429688 -98.113281 85.898438 -98.9375 95.828125 -98.9375 C 105.828125 -98.9375 114.945312 -98.195312 123.1875 -96.71875 C 131.4375 -95.238281 139.328125 -93.140625 146.859375 -90.421875 C 148.054688 -90.015625 148.9375 -90.03125 149.5 -90.46875 C 150.0625 -90.914062 150.460938 -91.335938 150.703125 -91.734375 C 150.773438 -91.972656 150.953125 -92.09375 151.234375 -92.09375 C 151.515625 -92.09375 151.65625 -91.851562 151.65625 -91.375 L 151.65625 -71.8125 C 151.738281 -71.25 151.578125 -70.925781 151.171875 -70.84375 C 150.773438 -70.757812 150.5 -71 150.34375 -71.5625 C 150.257812 -71.800781 150.078125 -72.179688 149.796875 -72.703125 C 149.515625 -73.222656 149.015625 -73.644531 148.296875 -73.96875 C 141.648438 -77.007812 133.820312 -79.550781 124.8125 -81.59375 C 115.8125 -83.632812 106.148438 -84.65625 95.828125 -84.65625 Z M 95.828125 -84.65625 "/></g></g></g><g fill="#0a131e" fill-opacity="1"><g transform="translate(490.703967, 99.957333)"><g><path d="M 34.34375 -89.9375 C 32.90625 -89.613281 31.941406 -89.007812 31.453125 -88.125 C 30.972656 -87.25 30.734375 -86.25 30.734375 -85.125 C 30.734375 -84.007812 30.734375 -82.929688 30.734375 -81.890625 C 30.734375 -81.328125 30.734375 -79.265625 30.734375 -75.703125 C 30.734375 -72.140625 30.734375 -67.71875 30.734375 -62.4375 C 30.734375 -57.15625 30.734375 -51.632812 30.734375 -45.875 L 30.734375 -45.515625 L 30.625 -6.484375 C 30.695312 -5.359375 30.875 -4.394531 31.15625 -3.59375 C 31.4375 -2.800781 32.21875 -2.125 33.5 -1.5625 C 34.21875 -1.320312 34.554688 -1.019531 34.515625 -0.65625 C 34.484375 -0.300781 34.101562 -0.125 33.375 -0.125 L 12.125 -0.125 C 11.320312 -0.125 10.960938 -0.320312 11.046875 -0.71875 C 11.128906 -1.125 11.445312 -1.363281 12 -1.4375 C 13.445312 -1.757812 14.410156 -2.378906 14.890625 -3.296875 C 15.367188 -4.222656 15.609375 -5.242188 15.609375 -6.359375 C 15.609375 -7.484375 15.609375 -8.566406 15.609375 -9.609375 C 15.609375 -10.171875 15.609375 -12.210938 15.609375 -15.734375 C 15.609375 -19.253906 15.609375 -23.65625 15.609375 -28.9375 C 15.609375 -34.21875 15.609375 -39.742188 15.609375 -45.515625 L 15.609375 -85.015625 C 15.523438 -86.054688 15.34375 -86.976562 15.0625 -87.78125 C 14.789062 -88.582031 14.015625 -89.257812 12.734375 -89.8125 C 12.085938 -90.050781 11.785156 -90.367188 11.828125 -90.765625 C 11.867188 -91.171875 12.25 -91.375 12.96875 -91.375 L 34.21875 -91.375 C 34.9375 -91.375 35.253906 -91.171875 35.171875 -90.765625 C 35.097656 -90.367188 34.820312 -90.09375 34.34375 -89.9375 Z M 34.34375 -89.9375 "/></g></g></g><g fill="#0a131e" fill-opacity="1"><g transform="translate(536.931297, 99.957333)"><g><path d="M 83.328125 -95.34375 C 94.054688 -95.34375 104.125 -94.097656 113.53125 -91.609375 C 122.9375 -89.128906 131.203125 -85.664062 138.328125 -81.21875 C 145.453125 -76.78125 151.035156 -71.640625 155.078125 -65.796875 C 159.117188 -59.953125 161.140625 -53.710938 161.140625 -47.078125 C 161.140625 -40.347656 159.117188 -34.0625 155.078125 -28.21875 C 151.035156 -22.375 145.453125 -17.226562 138.328125 -12.78125 C 131.203125 -8.34375 122.9375 -4.878906 113.53125 -2.390625 C 104.125 0.0859375 94.054688 1.328125 83.328125 1.328125 C 72.609375 1.328125 62.546875 0.0859375 53.140625 -2.390625 C 43.734375 -4.878906 35.46875 -8.34375 28.34375 -12.78125 C 21.21875 -17.226562 15.632812 -22.375 11.59375 -28.21875 C 7.550781 -34.0625 5.53125 -40.347656 5.53125 -47.078125 C 5.53125 -53.710938 7.550781 -59.953125 11.59375 -65.796875 C 15.632812 -71.640625 21.21875 -76.78125 28.34375 -81.21875 C 35.46875 -85.664062 43.734375 -89.128906 53.140625 -91.609375 C 62.546875 -94.097656 72.609375 -95.34375 83.328125 -95.34375 Z M 83.328125 -12.84375 C 91.898438 -12.84375 99.945312 -13.722656 107.46875 -15.484375 C 114.988281 -17.242188 121.59375 -19.6875 127.28125 -22.8125 C 132.96875 -25.9375 137.410156 -29.578125 140.609375 -33.734375 C 143.816406 -37.898438 145.421875 -42.347656 145.421875 -47.078125 C 145.421875 -51.710938 143.816406 -56.109375 140.609375 -60.265625 C 137.410156 -64.429688 132.96875 -68.078125 127.28125 -71.203125 C 121.59375 -74.328125 114.988281 -76.769531 107.46875 -78.53125 C 99.945312 -80.289062 91.898438 -81.171875 83.328125 -81.171875 C 74.765625 -81.171875 66.71875 -80.289062 59.1875 -78.53125 C 51.664062 -76.769531 45.0625 -74.328125 39.375 -71.203125 C 33.695312 -68.078125 29.253906 -64.429688 26.046875 -60.265625 C 22.847656 -56.109375 21.25 -51.710938 21.25 -47.078125 C 21.25 -42.347656 22.847656 -37.898438 26.046875 -33.734375 C 29.253906 -29.578125 33.695312 -25.9375 39.375 -22.8125 C 45.0625 -19.6875 51.664062 -17.242188 59.1875 -15.484375 C 66.71875 -13.722656 74.765625 -12.84375 83.328125 -12.84375 Z M 83.328125 -12.84375 "/></g></g></g><g fill="#0a131e" fill-opacity="1"><g transform="translate(703.589887, 99.957333)"><g><path d="M 146.96875 -89.703125 C 145.851562 -89.296875 145.113281 -88.648438 144.75 -87.765625 C 144.394531 -86.890625 144.21875 -86.015625 144.21875 -85.140625 C 144.21875 -84.492188 144.195312 -82.6875 144.15625 -79.71875 C 144.113281 -76.757812 144.09375 -73 144.09375 -68.4375 C 144.09375 -63.875 144.09375 -58.953125 144.09375 -53.671875 C 144.09375 -48.390625 144.09375 -43.085938 144.09375 -37.765625 C 144.09375 -32.441406 144.09375 -27.515625 144.09375 -22.984375 C 144.09375 -18.460938 144.09375 -14.738281 144.09375 -11.8125 C 144.09375 -8.894531 144.09375 -7.160156 144.09375 -6.609375 C 144.09375 -5.160156 144.234375 -4.015625 144.515625 -3.171875 C 144.796875 -2.335938 145.695312 -1.757812 147.21875 -1.4375 C 147.78125 -1.28125 148.019531 -0.960938 147.9375 -0.484375 C 147.851562 -0.00390625 147.613281 0.234375 147.21875 0.234375 L 125.609375 0.234375 C 125.117188 0.234375 124.875 -0.0234375 124.875 -0.546875 C 124.875 -1.066406 125.238281 -1.40625 125.96875 -1.5625 C 126.125 -1.5625 126.28125 -1.601562 126.4375 -1.6875 C 127.15625 -1.925781 127.65625 -2.40625 127.9375 -3.125 C 128.21875 -3.84375 128.117188 -4.519531 127.640625 -5.15625 C 125.316406 -8.445312 121.953125 -12.289062 117.546875 -16.6875 C 113.148438 -21.09375 108.066406 -25.695312 102.296875 -30.5 C 96.535156 -35.300781 90.394531 -40.003906 83.875 -44.609375 C 77.351562 -49.210938 70.769531 -53.375 64.125 -57.09375 C 57.476562 -60.820312 51.09375 -63.804688 44.96875 -66.046875 C 38.84375 -68.285156 33.335938 -69.445312 28.453125 -69.53125 C 26.054688 -69.925781 24.859375 -68.921875 24.859375 -66.515625 C 24.859375 -65.796875 24.835938 -63.957031 24.796875 -61 C 24.753906 -58.039062 24.710938 -54.414062 24.671875 -50.125 C 24.628906 -45.84375 24.566406 -41.359375 24.484375 -36.671875 C 24.410156 -31.992188 24.351562 -27.535156 24.3125 -23.296875 C 24.269531 -19.054688 24.25 -15.472656 24.25 -12.546875 C 24.25 -9.628906 24.25 -7.847656 24.25 -7.203125 C 24.332031 -6.085938 24.710938 -4.925781 25.390625 -3.71875 C 26.078125 -2.519531 26.859375 -1.722656 27.734375 -1.328125 C 28.210938 -1.160156 28.472656 -0.859375 28.515625 -0.421875 C 28.554688 0.0117188 28.21875 0.234375 27.5 0.234375 C 26.375 0.234375 24.769531 0.210938 22.6875 0.171875 C 20.613281 0.140625 18.4375 0.125 16.15625 0.125 C 13.875 0.125 11.832031 0.125 10.03125 0.125 C 8.226562 0.125 7.046875 0.160156 6.484375 0.234375 C 6.085938 0.234375 5.769531 -0.0390625 5.53125 -0.59375 C 5.445312 -0.914062 5.546875 -1.15625 5.828125 -1.3125 C 6.109375 -1.476562 6.367188 -1.601562 6.609375 -1.6875 C 8.203125 -2.476562 9.160156 -3.492188 9.484375 -4.734375 C 9.804688 -5.984375 10.007812 -7.367188 10.09375 -8.890625 C 10.09375 -9.441406 10.09375 -11.175781 10.09375 -14.09375 C 10.09375 -17.019531 10.09375 -20.707031 10.09375 -25.15625 C 10.09375 -29.601562 10.09375 -34.445312 10.09375 -39.6875 C 10.09375 -44.925781 10.09375 -50.164062 10.09375 -55.40625 C 10.09375 -60.65625 10.070312 -65.5 10.03125 -69.9375 C 9.988281 -74.382812 9.945312 -78.066406 9.90625 -80.984375 C 9.863281 -83.910156 9.800781 -85.613281 9.71875 -86.09375 C 9.476562 -87.851562 8.519531 -89.175781 6.84375 -90.0625 C 6.28125 -90.300781 6.078125 -90.617188 6.234375 -91.015625 C 6.398438 -91.421875 6.601562 -91.625 6.84375 -91.625 L 28.21875 -91.625 C 28.695312 -91.625 28.957031 -91.441406 29 -91.078125 C 29.039062 -90.710938 28.78125 -90.410156 28.21875 -90.171875 C 27.738281 -90.015625 27.195312 -89.796875 26.59375 -89.515625 C 26 -89.234375 25.703125 -88.8125 25.703125 -88.25 C 25.703125 -87.851562 25.957031 -87.570312 26.46875 -87.40625 C 26.988281 -87.25 27.570312 -87.132812 28.21875 -87.0625 C 35.34375 -86.09375 42.6875 -84.085938 50.25 -81.046875 C 57.8125 -78.003906 65.296875 -74.34375 72.703125 -70.0625 C 80.109375 -65.78125 87.132812 -61.296875 93.78125 -56.609375 C 100.425781 -51.929688 106.429688 -47.390625 111.796875 -42.984375 C 117.160156 -38.585938 121.640625 -34.785156 125.234375 -31.578125 C 125.960938 -30.941406 126.785156 -30.820312 127.703125 -31.21875 C 128.617188 -31.625 129.078125 -32.34375 129.078125 -33.375 L 128.484375 -84.171875 C 128.484375 -85.691406 128.460938 -86.910156 128.421875 -87.828125 C 128.378906 -88.753906 127.519531 -89.414062 125.84375 -89.8125 C 125.28125 -89.976562 125.019531 -90.320312 125.0625 -90.84375 C 125.101562 -91.363281 125.363281 -91.625 125.84375 -91.625 L 147.578125 -91.625 C 148.054688 -91.625 148.296875 -91.378906 148.296875 -90.890625 C 148.296875 -90.410156 147.851562 -90.015625 146.96875 -89.703125 Z M 146.96875 -89.703125 "/></g></g></g><g fill="#0a131e" fill-opacity="1"><g transform="translate(857.52101, 99.957333)"><g><path d="M 171.46875 -1.6875 C 171.945312 -1.445312 172.207031 -1.066406 172.25 -0.546875 C 172.289062 -0.0234375 171.910156 0.234375 171.109375 0.234375 C 170.472656 0.234375 169.09375 0.234375 166.96875 0.234375 C 164.84375 0.234375 162.378906 0.234375 159.578125 0.234375 C 156.773438 0.234375 154.015625 0.234375 151.296875 0.234375 C 148.578125 0.234375 146.234375 0.234375 144.265625 0.234375 C 142.304688 0.234375 141.128906 0.234375 140.734375 0.234375 C 140.253906 0.234375 139.910156 -0.0234375 139.703125 -0.546875 C 139.503906 -1.066406 139.847656 -1.523438 140.734375 -1.921875 C 140.972656 -2.003906 141.234375 -2.082031 141.515625 -2.15625 C 141.796875 -2.238281 142.054688 -2.359375 142.296875 -2.515625 C 143.816406 -3.160156 144.175781 -4.320312 143.375 -6 C 143.132812 -6.5625 142.65625 -7.398438 141.9375 -8.515625 C 141.21875 -9.640625 139.753906 -11.125 137.546875 -12.96875 C 135.347656 -14.8125 131.882812 -17.050781 127.15625 -19.6875 C 120.03125 -23.375 113.066406 -26.296875 106.265625 -28.453125 C 99.460938 -30.617188 93.039062 -32.257812 87 -33.375 C 80.957031 -34.5 75.53125 -35.238281 70.71875 -35.59375 C 65.914062 -35.957031 61.992188 -36.179688 58.953125 -36.265625 C 57.515625 -36.265625 55.8125 -35.601562 53.84375 -34.28125 C 51.882812 -32.957031 49.84375 -31.210938 47.71875 -29.046875 C 45.601562 -26.890625 43.523438 -24.585938 41.484375 -22.140625 C 39.441406 -19.703125 37.578125 -17.363281 35.890625 -15.125 C 34.210938 -12.882812 32.832031 -10.984375 31.75 -9.421875 C 30.675781 -7.859375 30.0625 -6.957031 29.90625 -6.71875 C 28.78125 -5.195312 28.9375 -3.957031 30.375 -3 C 30.851562 -2.757812 31.332031 -2.539062 31.8125 -2.34375 C 32.300781 -2.144531 32.785156 -1.960938 33.265625 -1.796875 C 34.066406 -1.554688 34.445312 -1.15625 34.40625 -0.59375 C 34.363281 -0.0390625 33.941406 0.234375 33.140625 0.234375 C 32.742188 0.234375 31.441406 0.234375 29.234375 0.234375 C 27.035156 0.234375 24.4375 0.234375 21.4375 0.234375 C 18.4375 0.234375 15.453125 0.234375 12.484375 0.234375 C 9.523438 0.234375 7.003906 0.234375 4.921875 0.234375 C 2.835938 0.234375 1.71875 0.234375 1.5625 0.234375 C 1.082031 0.234375 0.800781 -0.125 0.71875 -0.84375 C 0.632812 -1.5625 1.234375 -2.039062 2.515625 -2.28125 C 4.523438 -2.757812 6.367188 -3.4375 8.046875 -4.3125 C 9.722656 -5.195312 11.203125 -6.363281 12.484375 -7.8125 C 12.804688 -8.207031 13.925781 -9.601562 15.84375 -12 C 17.769531 -14.40625 20.234375 -17.507812 23.234375 -21.3125 C 26.234375 -25.113281 29.554688 -29.335938 33.203125 -33.984375 C 36.847656 -38.628906 40.585938 -43.390625 44.421875 -48.265625 C 48.265625 -53.148438 51.988281 -57.875 55.59375 -62.4375 C 59.195312 -67 62.421875 -71.117188 65.265625 -74.796875 C 68.109375 -78.484375 70.390625 -81.445312 72.109375 -83.6875 C 73.828125 -85.9375 74.726562 -87.140625 74.8125 -87.296875 C 75.125 -88.097656 75.0625 -88.675781 74.625 -89.03125 C 74.1875 -89.394531 73.6875 -89.65625 73.125 -89.8125 C 72.40625 -90.050781 72.101562 -90.429688 72.21875 -90.953125 C 72.34375 -91.472656 72.601562 -91.734375 73 -91.734375 C 73.40625 -91.734375 74.507812 -91.734375 76.3125 -91.734375 C 78.113281 -91.734375 80.253906 -91.734375 82.734375 -91.734375 C 85.210938 -91.734375 87.734375 -91.734375 90.296875 -91.734375 C 92.859375 -91.734375 95.078125 -91.734375 96.953125 -91.734375 C 98.835938 -91.734375 100.019531 -91.734375 100.5 -91.734375 C 101.144531 -91.734375 101.46875 -91.453125 101.46875 -90.890625 C 101.46875 -90.335938 101.109375 -90.019531 100.390625 -89.9375 C 98.867188 -89.695312 98.304688 -88.859375 98.703125 -87.421875 C 99.097656 -86.535156 100.273438 -84.691406 102.234375 -81.890625 C 104.203125 -79.085938 106.765625 -75.664062 109.921875 -71.625 C 113.085938 -67.582031 116.59375 -63.160156 120.4375 -58.359375 C 124.28125 -53.554688 128.28125 -48.648438 132.4375 -43.640625 C 136.601562 -38.640625 140.726562 -33.757812 144.8125 -29 C 148.894531 -24.238281 152.71875 -19.914062 156.28125 -16.03125 C 159.84375 -12.144531 162.941406 -8.921875 165.578125 -6.359375 C 168.222656 -3.796875 170.1875 -2.238281 171.46875 -1.6875 Z M 113 -42.140625 C 113.394531 -42.140625 113.628906 -42.378906 113.703125 -42.859375 C 113.785156 -43.347656 113.628906 -43.75 113.234375 -44.0625 C 112.992188 -44.550781 112.734375 -44.972656 112.453125 -45.328125 C 112.171875 -45.691406 111.867188 -46.03125 111.546875 -46.34375 C 110.828125 -47.070312 110.144531 -47.816406 109.5 -48.578125 C 108.863281 -49.335938 108.265625 -50.078125 107.703125 -50.796875 C 106.421875 -52.472656 105.117188 -54.113281 103.796875 -55.71875 C 102.484375 -57.320312 101.144531 -58.882812 99.78125 -60.40625 C 98.738281 -61.6875 97.675781 -63.003906 96.59375 -64.359375 C 95.519531 -65.722656 94.421875 -67.003906 93.296875 -68.203125 C 92.421875 -69.160156 91.601562 -70.140625 90.84375 -71.140625 C 90.082031 -72.140625 89.300781 -73.160156 88.5 -74.203125 C 87.300781 -75.566406 86.140625 -75.53125 85.015625 -74.09375 C 83.816406 -72.644531 82.613281 -71.160156 81.40625 -69.640625 C 80.207031 -68.117188 78.96875 -66.640625 77.6875 -65.203125 C 76.332031 -63.597656 75.015625 -61.972656 73.734375 -60.328125 C 72.453125 -58.691406 71.085938 -57.15625 69.640625 -55.71875 C 69.398438 -55.394531 69.160156 -55.050781 68.921875 -54.6875 C 68.679688 -54.332031 68.519531 -53.957031 68.4375 -53.5625 C 68.6875 -52.195312 69.25 -51.429688 70.125 -51.265625 C 70.769531 -51.265625 72.191406 -51.023438 74.390625 -50.546875 C 76.585938 -50.066406 79.25 -49.46875 82.375 -48.75 C 85.5 -48.03125 88.738281 -47.289062 92.09375 -46.53125 C 95.457031 -45.769531 98.660156 -45.046875 101.703125 -44.359375 C 104.742188 -43.679688 107.285156 -43.140625 109.328125 -42.734375 C 111.367188 -42.335938 112.59375 -42.140625 113 -42.140625 Z M 113 -42.140625 "/></g></g></g><g fill="#0a131e" fill-opacity="1"><g transform="translate(1030.663409, 99.957333)"><g><path d="M 153.8125 -17.65625 C 153.8125 -16.53125 153.8125 -15.109375 153.8125 -13.390625 C 153.8125 -11.671875 153.8125 -9.890625 153.8125 -8.046875 C 153.8125 -6.203125 153.832031 -4.617188 153.875 -3.296875 C 153.914062 -1.984375 153.894531 -1.203125 153.8125 -0.953125 C 153.8125 -0.160156 153.253906 0.234375 152.140625 0.234375 L 28.09375 0.359375 L 6.484375 0.359375 C 5.765625 0.359375 5.441406 0.160156 5.515625 -0.234375 C 5.597656 -0.640625 5.921875 -0.878906 6.484375 -0.953125 C 7.847656 -1.273438 8.789062 -1.894531 9.3125 -2.8125 C 9.832031 -3.738281 10.09375 -4.757812 10.09375 -5.875 C 10.09375 -7 10.09375 -8.082031 10.09375 -9.125 C 10.09375 -9.6875 10.09375 -11.726562 10.09375 -15.25 C 10.09375 -18.769531 10.09375 -23.050781 10.09375 -28.09375 L 10.09375 -84.53125 C 10.007812 -85.414062 9.882812 -86.21875 9.71875 -86.9375 C 9.5625 -87.65625 9.082031 -88.296875 8.28125 -88.859375 C 7.96875 -89.015625 7.609375 -89.175781 7.203125 -89.34375 C 6.566406 -89.582031 6.265625 -89.898438 6.296875 -90.296875 C 6.335938 -90.703125 6.679688 -90.90625 7.328125 -90.90625 L 28.703125 -90.90625 C 29.421875 -90.90625 29.738281 -90.703125 29.65625 -90.296875 C 29.582031 -89.898438 29.300781 -89.617188 28.8125 -89.453125 C 28.257812 -89.378906 27.78125 -89.222656 27.375 -88.984375 C 26.019531 -88.253906 25.300781 -87.148438 25.21875 -85.671875 C 25.132812 -84.191406 25.132812 -82.769531 25.21875 -81.40625 C 25.21875 -81.09375 25.195312 -80.296875 25.15625 -79.015625 C 25.113281 -77.734375 25.09375 -76.050781 25.09375 -73.96875 L 25.09375 -16.8125 C 25.09375 -15.925781 25.390625 -15.179688 25.984375 -14.578125 C 26.585938 -13.984375 27.289062 -13.6875 28.09375 -13.6875 C 28.976562 -13.6875 31.257812 -13.707031 34.9375 -13.75 C 38.625 -13.789062 43.269531 -13.828125 48.875 -13.859375 C 54.476562 -13.898438 60.660156 -13.941406 67.421875 -13.984375 C 74.191406 -14.023438 81.15625 -14.066406 88.3125 -14.109375 C 95.476562 -14.148438 102.421875 -14.191406 109.140625 -14.234375 C 115.867188 -14.273438 121.992188 -14.332031 127.515625 -14.40625 C 133.046875 -14.488281 137.609375 -14.53125 141.203125 -14.53125 C 144.804688 -14.53125 146.972656 -14.53125 147.703125 -14.53125 C 148.898438 -14.53125 149.878906 -14.847656 150.640625 -15.484375 C 151.398438 -16.128906 152.019531 -16.929688 152.5 -17.890625 C 152.582031 -18.128906 152.660156 -18.390625 152.734375 -18.671875 C 152.816406 -18.953125 153.019531 -19.050781 153.34375 -18.96875 C 153.738281 -18.8125 153.894531 -18.375 153.8125 -17.65625 Z M 153.8125 -17.65625 "/></g></g></g></g></g></svg>